<?xml version="1.0" encoding="UTF-8" standalone="no"?>
<!-- Created with Inkscape (http://www.inkscape.org/) -->

<svg
   width="1920"
   height="1080"
   viewBox="0 0 1920 1080"
   version="1.1"
   id="svg5"
   inkscape:version="1.1.1 (3bf5ae0d25, 2021-09-20)"
   sodipodi:docname="cartello_autostrada.svg"
   xmlns:inkscape="http://www.inkscape.org/namespaces/inkscape"
   xmlns:sodipodi="http://sodipodi.sourceforge.net/DTD/sodipodi-0.dtd"
   xmlns="http://www.w3.org/2000/svg"
   xmlns:svg="http://www.w3.org/2000/svg">
  <sodipodi:namedview
     id="namedview7"
     pagecolor="#ffffff"
     bordercolor="#666666"
     borderopacity="1.0"
     inkscape:pageshadow="2"
     inkscape:pageopacity="0.0"
     inkscape:pagecheckerboard="0"
     inkscape:document-units="px"
     showgrid="false"
     inkscape:zoom="0.69739584"
     inkscape:cx="628.05078"
     inkscape:cy="272.44212"
     inkscape:window-width="2560"
     inkscape:window-height="1376"
     inkscape:window-x="0"
     inkscape:window-y="27"
     inkscape:window-maximized="1"
     inkscape:current-layer="layer1"
     showguides="true"
     inkscape:guide-bbox="true">
    <sodipodi:guide
       position="540.4218,740.33527"
       orientation="0,-1"
       id="guide50963" />
  </sodipodi:namedview>
  <defs
     id="defs2">
    <rect
       x="690.11062"
       y="383.5798"
       width="978.59334"
       height="243.79026"
       id="rect62401" />
    <rect
       x="813.75963"
       y="395.51772"
       width="711.77592"
       height="213.51894"
       id="rect7289" />
    <rect
       x="292.84146"
       y="459.19514"
       width="270.2403"
       height="162.21543"
       id="rect47909" />
    <rect
       x="382.7949"
       y="378.51926"
       width="683.2786"
       height="108.07629"
       id="rect6009" />
    <inkscape:path-effect
       effect="fillet_chamfer"
       id="path-effect3346"
       is_visible="true"
       lpeversion="1"
       satellites_param="F,0,0,1,0,37,0,1 @ F,0,0,1,0,37,0,1 @ F,0,0,1,0,37,0,1 @ F,0,0,1,0,37,0,1"
       unit="px"
       method="auto"
       mode="F"
       radius="37"
       chamfer_steps="1"
       flexible="false"
       use_knot_distance="true"
       apply_no_radius="true"
       apply_with_radius="true"
       only_selected="false"
       hide_knots="false" />
    <inkscape:path-effect
       effect="fillet_chamfer"
       id="path-effect3312"
       is_visible="true"
       lpeversion="1"
       satellites_param="F,0,0,1,0,37,0,1 @ F,0,0,1,0,37,0,1 @ F,0,0,1,0,37,0,1 @ F,0,0,1,0,37,0,1"
       unit="px"
       method="auto"
       mode="F"
       radius="37"
       chamfer_steps="1"
       flexible="false"
       use_knot_distance="true"
       apply_no_radius="true"
       apply_with_radius="true"
       only_selected="false"
       hide_knots="false" />
    <marker
       style="overflow:visible"
       id="Arrow2Lstart"
       refX="0.0"
       refY="0.0"
       orient="auto"
       inkscape:stockid="Arrow2Lstart"
       inkscape:isstock="true">
      <path
         transform="scale(1.1) translate(1,0)"
         d="M 8.7185878,4.0337352 L -2.2072895,0.016013256 L 8.7185884,-4.0017078 C 6.9730900,-1.6296469 6.9831476,1.6157441 8.7185878,4.0337352 z "
         style="stroke:context-stroke;fill-rule:evenodd;fill:context-stroke;stroke-width:0.62500000;stroke-linejoin:round"
         id="path2926" />
    </marker>
    <linearGradient
       id="linearGradient2858"
       inkscape:swatch="solid">
      <stop
         style="stop-color:#000000;stop-opacity:1;"
         offset="0"
         id="stop2856" />
    </linearGradient>
  </defs>
  <g
     inkscape:label="Layer 1"
     inkscape:groupmode="layer"
     id="layer1">
    <path
       style="opacity:0.84;fill:#000000;fill-opacity:1;stroke:#000000;stroke-width:6.028;stroke-linecap:square;stroke-linejoin:miter;stroke-miterlimit:4;stroke-dasharray:none"
       id="rect846"
       width="1467.4679"
       height="504.47189"
       x="226.26605"
       y="287.76404"
       inkscape:path-effect="#path-effect3312"
       d="M 263.26605,287.76404 H 1656.7339 a 37,37 45 0 1 37,37 v 430.47189 a 37,37 135 0 1 -37,37 H 263.26605 a 37,37 45 0 1 -37,-37 V 324.76404 a 37,37 135 0 1 37,-37 z"
       sodipodi:type="rect" />
    <path
       style="opacity:0.84;fill:#000000;fill-opacity:1;stroke:#000000;stroke-width:6.028;stroke-linecap:square;stroke-linejoin:miter;stroke-miterlimit:4;stroke-dasharray:none"
       id="rect846-3"
       width="1445.0437"
       height="487.33426"
       x="237.47815"
       y="296.33289"
       inkscape:path-effect="#path-effect3346"
       sodipodi:type="rect"
       d="M 274.47815,296.33289 H 1645.5219 a 37,37 45 0 1 37,37 v 413.33425 a 37,37 135 0 1 -37,37 H 274.47815 a 37,37 45 0 1 -37,-37 V 333.33289 a 37,37 135 0 1 37,-37 z" />
    <text
       xml:space="preserve"
       id="text6007"
       style="fill:black;fill-opacity:1;line-height:1.25;stroke:none;font-family:sans-serif;font-style:normal;font-weight:normal;font-size:40px;white-space:pre;shape-inside:url(#rect6009)" />
    <text
       xml:space="preserve"
       id="text47907"
       style="fill:black;fill-opacity:1;line-height:1.25;stroke:none;font-family:sans-serif;font-style:normal;font-weight:normal;font-size:40px;white-space:pre;shape-inside:url(#rect47909)" />
    <rect
       style="opacity:0.84;fill:#1a1a1a;fill-opacity:1;stroke:#000000;stroke-width:6.028;stroke-linecap:square;stroke-miterlimit:4;stroke-dasharray:none"
       id="rect50826"
       width="199.47101"
       height="235.38814"
       x="256.26605"
       y="376.30591"
       rx="0"
       ry="33.9179" />
    <rect
       style="opacity:0.84;fill:#1a1a1a;fill-opacity:1;stroke:#000000;stroke-width:6.028;stroke-linecap:square;stroke-miterlimit:4;stroke-dasharray:none"
       id="rect50826-6"
       width="199.47101"
       height="235.38814"
       x="455.73706"
       y="376.30591"
       rx="0"
       ry="33.9179" />
    <text
       xml:space="preserve"
       id="text7287"
       style="fill:black;fill-opacity:1;line-height:1.25;stroke:none;font-family:sans-serif;font-style:normal;font-weight:normal;font-size:40px;white-space:pre;shape-inside:url(#rect7289)" />
    <g
       aria-label="rcastellotti.dev"
       id="text7757"
       style="font-size:28px;line-height:1.25">
      <path
         d="m 1390.6555,769.08633 v -2.74 h 2.74 v 2.74 z m 12.12,0 v -2.74 h 2.76 v 2.74 z m -12.12,-3.02 v -2.76 h 2.74 v 2.76 z m 9.08,0 v -2.76 h 2.76 v 2.76 z m -9.08,-3.02 v -2.76 h 2.74 v 2.76 z m 6.06,-0.02 v -2.76 h 2.74 v 2.76 z m -6.06,-3.02 v -2.76 h 2.74 v 2.76 z m 3.02,0 v -2.76 h 2.76 v 2.76 z m 3.04,0 v -2.76 h 2.74 v 2.76 z m 3.02,0 v -2.76 h 2.76 v 2.76 z m -9.08,-3.04 v -2.74 h 2.74 v 2.74 z m 12.12,0 v -2.76 h 2.76 v 2.76 z m -12.12,-3.02 v -2.76 h 2.74 v 2.76 z m 12.12,0 v -2.76 h 2.76 v 2.76 z m -12.12,-3.02 v -2.78 h 2.74 v 2.78 z m 3.02,-0.02 v -2.76 h 2.76 v 2.76 z m 3.04,0 v -2.76 h 2.74 v 2.76 z m 3.02,0 v -2.76 h 2.76 v 2.76 z"
         style="font-family:'Electronic Highway Sign';-inkscape-font-specification:'Electronic Highway Sign';fill:#ececec"
         id="path118492" />
      <path
         d="m 1410.8154,769.08633 v -2.74 h 2.76 v 2.74 z m 3.04,0 v -2.74 h 2.76 v 2.74 z m 3.02,0 v -2.74 h 2.76 v 2.74 z m -9.08,-3.02 v -2.76 h 2.76 v 2.76 z m 12.12,0 v -2.76 h 2.76 v 2.76 z m -12.12,-3.04 v -2.74 h 2.74 v 2.74 z m 0,-3.02 v -2.76 h 2.74 v 2.76 z m 0,-3.04 v -2.74 h 2.74 v 2.74 z m 0,-3.02 v -2.76 h 2.74 v 2.76 z m 12.12,0 v -2.76 h 2.76 v 2.76 z m -9.1,-3.04 v -2.76 h 2.76 v 2.76 z m 3.04,0 v -2.76 h 2.74 v 2.76 z m 3.02,0 v -2.76 h 2.76 v 2.76 z"
         style="font-family:'Electronic Highway Sign';-inkscape-font-specification:'Electronic Highway Sign';fill:#ececec"
         id="path118494" />
      <path
         d="m 1424.9354,769.08633 v -2.74 h 2.74 v 2.74 z m 12.12,0 v -2.74 h 2.76 v 2.74 z m -12.12,-3.02 v -2.76 h 2.74 v 2.76 z m 12.12,0 v -2.76 h 2.76 v 2.76 z m -12.12,-3.02 v -2.76 h 2.74 v 2.76 z m 3.02,0 v -2.76 h 2.76 v 2.76 z m 3.04,-0.02 v -2.74 h 2.74 v 2.74 z m 3.02,0 v -2.76 h 2.76 v 2.76 z m 3.04,0 v -2.76 h 2.76 v 2.76 z m -12.12,-3.02 v -2.76 h 2.74 v 2.76 z m 12.12,0 v -2.76 h 2.76 v 2.76 z m -12.12,-3.04 v -2.74 h 2.74 v 2.74 z m 12.12,0 v -2.76 h 2.76 v 2.76 z m -9.1,-3.02 v -2.76 h 2.74 v 2.76 z m 6.06,-0.04 v -2.76 h 2.76 v 2.76 z m -3.02,-3 v -2.76 h 2.74 v 2.76 z"
         style="font-family:'Electronic Highway Sign';-inkscape-font-specification:'Electronic Highway Sign';fill:#ececec"
         id="path118496" />
      <path
         d="m 1445.0954,769.08633 v -2.74 h 2.76 v 2.74 z m 3.04,0 v -2.74 h 2.74 v 2.74 z m 3.02,0 v -2.74 h 2.76 v 2.74 z m -9.08,-3.02 v -2.76 h 2.74 v 2.76 z m 12.12,0 v -2.76 h 2.76 v 2.76 z m 0,-3.04 v -2.76 h 2.76 v 2.76 z m -9.1,-3.02 v -2.76 h 2.76 v 2.76 z m 3.04,0 v -2.76 h 2.74 v 2.76 z m 3.02,0 v -2.76 h 2.76 v 2.76 z m -9.08,-3.04 v -2.74 h 2.74 v 2.74 z m 0,-3.02 v -2.76 h 2.74 v 2.76 z m 12.12,0 v -2.76 h 2.76 v 2.76 z m -9.1,-3.04 v -2.76 h 2.76 v 2.76 z m 3.04,0 v -2.76 h 2.74 v 2.76 z m 3.02,0 v -2.76 h 2.76 v 2.76 z"
         style="font-family:'Electronic Highway Sign';-inkscape-font-specification:'Electronic Highway Sign';fill:#ececec"
         id="path118498" />
      <path
         d="m 1465.2754,769.08633 v -2.74 h 2.76 v 2.74 z m 0,-3.02 v -2.76 h 2.76 v 2.76 z m 0,-3.04 v -2.76 h 2.76 v 2.76 z m 0,-3.02 v -2.76 h 2.74 v 2.76 z m 0,-3.04 v -2.74 h 2.74 v 2.74 z m 0,-3.02 v -2.76 h 2.74 v 2.76 z m -6.06,-3.04 v -2.76 h 2.74 v 2.76 z m 3.02,0 v -2.76 h 2.76 v 2.76 z m 3.04,0 v -2.76 h 2.74 v 2.76 z m 3.02,0 v -2.76 h 2.76 v 2.76 z m 3.04,0 v -2.76 h 2.76 v 2.76 z"
         style="font-family:'Electronic Highway Sign';-inkscape-font-specification:'Electronic Highway Sign';fill:#ececec"
         id="path118500" />
      <path
         d="m 1476.3554,769.08633 v -2.74 h 2.74 v 2.74 z m 3.02,0 v -2.74 h 2.76 v 2.74 z m 3.04,0 v -2.74 h 2.74 v 2.74 z m 3.02,0 v -2.74 h 2.76 v 2.74 z m 3.04,0 v -2.74 h 2.76 v 2.74 z m -12.12,-3.02 v -2.76 h 2.74 v 2.76 z m 0,-3.02 v -2.76 h 2.74 v 2.76 z m 0,-3.04 v -2.76 h 2.74 v 2.76 z m 3.02,0 v -2.76 h 2.76 v 2.76 z m 3.04,0 v -2.76 h 2.74 v 2.76 z m 3.02,0 v -2.76 h 2.76 v 2.76 z m -9.08,-3.04 v -2.74 h 2.74 v 2.74 z m 0,-3.02 v -2.76 h 2.74 v 2.76 z m 0,-3.02 v -2.78 h 2.74 v 2.78 z m 3.02,-0.02 v -2.76 h 2.76 v 2.76 z m 3.04,0 v -2.76 h 2.74 v 2.76 z m 3.02,0 v -2.76 h 2.76 v 2.76 z m 3.04,0 v -2.76 h 2.76 v 2.76 z"
         style="font-family:'Electronic Highway Sign';-inkscape-font-specification:'Electronic Highway Sign';fill:#ececec"
         id="path118502" />
      <path
         d="m 1493.4954,769.08633 v -2.74 h 2.76 v 2.74 z m 3.02,0 v -2.74 h 2.76 v 2.74 z m 3.04,0 v -2.74 h 2.76 v 2.74 z m 3.02,0 v -2.74 h 2.76 v 2.74 z m 3.04,0 v -2.74 h 2.76 v 2.74 z m -12.12,-3.02 v -2.76 h 2.76 v 2.76 z m 0,-3.04 v -2.76 h 2.76 v 2.76 z m 0,-3.02 v -2.76 h 2.76 v 2.76 z m 0,-3.04 v -2.74 h 2.76 v 2.74 z m 0,-3.02 v -2.76 h 2.74 v 2.76 z m 0,-3.04 v -2.76 h 2.74 v 2.76 z"
         style="font-family:'Electronic Highway Sign';-inkscape-font-specification:'Electronic Highway Sign';fill:#ececec"
         id="path118504" />
      <path
         d="m 1510.6354,769.08633 v -2.74 h 2.76 v 2.74 z m 3.02,0 v -2.74 h 2.76 v 2.74 z m 3.04,0 v -2.74 h 2.76 v 2.74 z m 3.02,0 v -2.74 h 2.76 v 2.74 z m 3.04,0 v -2.74 h 2.76 v 2.74 z m -12.12,-3.02 v -2.76 h 2.76 v 2.76 z m 0,-3.04 v -2.76 h 2.76 v 2.76 z m 0,-3.02 v -2.76 h 2.76 v 2.76 z m 0,-3.04 v -2.74 h 2.76 v 2.74 z m 0,-3.02 v -2.76 h 2.74 v 2.76 z m 0,-3.04 v -2.76 h 2.74 v 2.76 z"
         style="font-family:'Electronic Highway Sign';-inkscape-font-specification:'Electronic Highway Sign';fill:#ececec"
         id="path118506" />
      <path
         d="m 1530.7954,769.08633 v -2.74 h 2.76 v 2.74 z m 3.04,0 v -2.74 h 2.74 v 2.74 z m 3.02,0 v -2.74 h 2.76 v 2.74 z m -9.08,-3.02 v -2.76 h 2.74 v 2.76 z m 12.12,0 v -2.76 h 2.76 v 2.76 z m -12.12,-3.02 v -2.76 h 2.74 v 2.76 z m 12.12,-0.02 v -2.76 h 2.76 v 2.76 z m -12.12,-3.02 v -2.76 h 2.74 v 2.76 z m 12.12,0 v -2.76 h 2.76 v 2.76 z m -12.12,-3.04 v -2.74 h 2.74 v 2.74 z m 12.12,0 v -2.76 h 2.76 v 2.76 z m -12.12,-3.02 v -2.76 h 2.74 v 2.76 z m 12.12,0 v -2.76 h 2.76 v 2.76 z m -9.1,-3.04 v -2.76 h 2.76 v 2.76 z m 3.04,0 v -2.76 h 2.74 v 2.76 z m 3.02,0 v -2.76 h 2.76 v 2.76 z"
         style="font-family:'Electronic Highway Sign';-inkscape-font-specification:'Electronic Highway Sign';fill:#ececec"
         id="path118508" />
      <path
         d="m 1550.9754,769.08633 v -2.74 h 2.76 v 2.74 z m 0,-3.02 v -2.76 h 2.76 v 2.76 z m 0,-3.04 v -2.76 h 2.76 v 2.76 z m 0,-3.02 v -2.76 h 2.74 v 2.76 z m 0,-3.04 v -2.74 h 2.74 v 2.74 z m 0,-3.02 v -2.76 h 2.74 v 2.76 z m -6.06,-3.04 v -2.76 h 2.74 v 2.76 z m 3.02,0 v -2.76 h 2.76 v 2.76 z m 3.04,0 v -2.76 h 2.74 v 2.76 z m 3.02,0 v -2.76 h 2.76 v 2.76 z m 3.04,0 v -2.76 h 2.76 v 2.76 z"
         style="font-family:'Electronic Highway Sign';-inkscape-font-specification:'Electronic Highway Sign';fill:#ececec"
         id="path118510" />
      <path
         d="m 1568.1154,769.08633 v -2.74 h 2.76 v 2.74 z m 0,-3.02 v -2.76 h 2.76 v 2.76 z m 0,-3.04 v -2.76 h 2.76 v 2.76 z m 0,-3.02 v -2.76 h 2.74 v 2.76 z m 0,-3.04 v -2.74 h 2.74 v 2.74 z m 0,-3.02 v -2.76 h 2.74 v 2.76 z m -6.06,-3.04 v -2.76 h 2.74 v 2.76 z m 3.02,0 v -2.76 h 2.76 v 2.76 z m 3.04,0 v -2.76 h 2.74 v 2.76 z m 3.02,0 v -2.76 h 2.76 v 2.76 z m 3.04,0 v -2.76 h 2.76 v 2.76 z"
         style="font-family:'Electronic Highway Sign';-inkscape-font-specification:'Electronic Highway Sign';fill:#ececec"
         id="path118512" />
      <path
         d="m 1582.2354,769.08633 v -2.74 h 2.74 v 2.74 z m 3.02,0 v -2.74 h 2.76 v 2.74 z m 3.04,0 v -2.74 h 2.74 v 2.74 z m -3.04,-3.02 v -2.76 h 2.76 v 2.76 z m 0,-3.04 v -2.76 h 2.76 v 2.76 z m 0,-3.02 v -2.76 h 2.74 v 2.76 z m 0,-3.04 v -2.74 h 2.74 v 2.74 z m 0,-3.02 v -2.76 h 2.74 v 2.76 z m -3.02,-3.04 v -2.76 h 2.74 v 2.76 z m 3.02,0 v -2.76 h 2.74 v 2.76 z m 3.02,0 v -2.76 h 2.76 v 2.76 z"
         style="font-family:'Electronic Highway Sign';-inkscape-font-specification:'Electronic Highway Sign';fill:#ececec"
         id="path118514" />
      <path
         d="m 1599.3754,769.08633 v -2.74 h 2.74 v 2.74 z m 3.02,0 v -2.74 h 2.76 v 2.74 z m -3.02,-3.02 v -2.76 h 2.74 v 2.76 z m 3.02,0 v -2.76 h 2.76 v 2.76 z"
         style="font-family:'Electronic Highway Sign';-inkscape-font-specification:'Electronic Highway Sign';fill:#ececec"
         id="path118516" />
      <path
         d="m 1613.4753,769.08633 v -2.74 h 2.74 v 2.74 z m 3.02,0 v -2.74 h 2.76 v 2.74 z m 3.04,0 v -2.74 h 2.74 v 2.74 z m -6.06,-3.02 v -2.76 h 2.74 v 2.76 z m 9.08,0 v -2.76 h 2.76 v 2.76 z m -9.08,-3.02 v -2.76 h 2.74 v 2.76 z m 12.12,-0.02 v -2.76 h 2.76 v 2.76 z m -12.12,-3.02 v -2.76 h 2.74 v 2.76 z m 12.12,0 v -2.76 h 2.76 v 2.76 z m -12.12,-3.04 v -2.74 h 2.74 v 2.74 z m 12.12,0 v -2.76 h 2.76 v 2.76 z m -12.12,-3.02 v -2.76 h 2.74 v 2.76 z m 9.08,0 v -2.76 h 2.76 v 2.76 z m -9.08,-3.02 v -2.78 h 2.74 v 2.78 z m 3.02,-0.02 v -2.76 h 2.76 v 2.76 z m 3.04,0 v -2.76 h 2.74 v 2.76 z"
         style="font-family:'Electronic Highway Sign';-inkscape-font-specification:'Electronic Highway Sign';fill:#ececec"
         id="path118518" />
      <path
         d="m 1630.6153,769.08633 v -2.74 h 2.74 v 2.74 z m 3.02,0 v -2.74 h 2.76 v 2.74 z m 3.04,0 v -2.74 h 2.74 v 2.74 z m 3.02,0 v -2.74 h 2.76 v 2.74 z m 3.04,0 v -2.74 h 2.76 v 2.74 z m -12.12,-3.02 v -2.76 h 2.74 v 2.76 z m 0,-3.02 v -2.76 h 2.74 v 2.76 z m 0,-3.04 v -2.76 h 2.74 v 2.76 z m 3.02,0 v -2.76 h 2.76 v 2.76 z m 3.04,0 v -2.76 h 2.74 v 2.76 z m 3.02,0 v -2.76 h 2.76 v 2.76 z m -9.08,-3.04 v -2.74 h 2.74 v 2.74 z m 0,-3.02 v -2.76 h 2.74 v 2.76 z m 0,-3.02 v -2.78 h 2.74 v 2.78 z m 3.02,-0.02 v -2.76 h 2.76 v 2.76 z m 3.04,0 v -2.76 h 2.74 v 2.76 z m 3.02,0 v -2.76 h 2.76 v 2.76 z m 3.04,0 v -2.76 h 2.76 v 2.76 z"
         style="font-family:'Electronic Highway Sign';-inkscape-font-specification:'Electronic Highway Sign';fill:#ececec"
         id="path118520" />
      <path
         d="m 1653.8153,769.08633 v -2.74 h 2.74 v 2.74 z m -6.06,-12.12 v -2.74 h 2.74 v 2.74 z m 12.12,0 v -2.76 h 2.76 v 2.76 z m -12.12,-3.02 v -2.76 h 2.74 v 2.76 z m 12.12,0 v -2.76 h 2.76 v 2.76 z m -12.12,-3.04 v -2.76 h 2.74 v 2.76 z m 12.12,0 v -2.76 h 2.76 v 2.76 z m -9.1,12.14 v -2.76 h 2.76 v 2.76 z m 6.06,-0.02 v -2.76 h 2.76 v 2.76 z m -6.06,-3.02 v -2.76 h 2.76 v 2.76 z m 6.06,0 v -2.76 h 2.76 v 2.76 z m -3.02,6.06 v -2.76 h 2.76 v 2.76 z"
         style="font-family:'Electronic Highway Sign';-inkscape-font-specification:'Electronic Highway Sign';fill:#ececec"
         id="path118522" />
    </g>
    <text
       xml:space="preserve"
       id="text62399"
       style="fill:black;fill-opacity:1;line-height:1.25;stroke:none;font-family:sans-serif;font-style:normal;font-weight:normal;font-size:40px;white-space:pre;shape-inside:url(#rect62401)" />
  </g>
</svg>
