<?xml version="1.0" encoding="UTF-8" standalone="no"?>
<!-- Created with Inkscape (http://www.inkscape.org/) -->

<svg
   width="1473.4958"
   height="510.49988"
   viewBox="0 0 1473.4958 510.49988"
   version="1.1"
   id="svg5"
   inkscape:version="1.1.1 (3bf5ae0d25, 2021-09-20)"
   sodipodi:docname="cartello_autostrada.svg"
   xmlns:inkscape="http://www.inkscape.org/namespaces/inkscape"
   xmlns:sodipodi="http://sodipodi.sourceforge.net/DTD/sodipodi-0.dtd"
   xmlns="http://www.w3.org/2000/svg"
   xmlns:svg="http://www.w3.org/2000/svg">
  <sodipodi:namedview
     id="namedview7"
     pagecolor="#ffffff"
     bordercolor="#666666"
     borderopacity="1.0"
     inkscape:pageshadow="2"
     inkscape:pageopacity="0.0"
     inkscape:pagecheckerboard="0"
     inkscape:document-units="px"
     showgrid="false"
     inkscape:zoom="1.3947917"
     inkscape:cx="271.36669"
     inkscape:cy="247.34877"
     inkscape:window-width="1920"
     inkscape:window-height="1016"
     inkscape:window-x="0"
     inkscape:window-y="27"
     inkscape:window-maximized="1"
     inkscape:current-layer="layer1"
     showguides="true"
     inkscape:guide-bbox="true"
     inkscape:lockguides="true">
    <sodipodi:guide
       position="317.16974,1042.2229"
       orientation="0,-1"
       id="guide50963"
       inkscape:locked="true" />
    <sodipodi:guide
       position="-61.657951,410.12647"
       orientation="0,-1"
       id="guide2991" />
  </sodipodi:namedview>
  <defs
     id="defs2">
    <rect
       x="690.1106"
       y="383.5798"
       width="978.59332"
       height="243.79025"
       id="rect62401" />
    <rect
       x="813.75964"
       y="395.51773"
       width="711.77594"
       height="213.51894"
       id="rect7289" />
    <rect
       x="292.84146"
       y="459.19513"
       width="270.2403"
       height="162.21542"
       id="rect47909" />
    <rect
       x="382.79489"
       y="378.51926"
       width="683.27863"
       height="108.07629"
       id="rect6009" />
    <inkscape:path-effect
       effect="fillet_chamfer"
       id="path-effect3346"
       is_visible="true"
       lpeversion="1"
       satellites_param="F,0,0,1,0,37,0,1 @ F,0,0,1,0,37,0,1 @ F,0,0,1,0,37,0,1 @ F,0,0,1,0,37,0,1"
       unit="px"
       method="auto"
       mode="F"
       radius="37"
       chamfer_steps="1"
       flexible="false"
       use_knot_distance="true"
       apply_no_radius="true"
       apply_with_radius="true"
       only_selected="false"
       hide_knots="false" />
    <inkscape:path-effect
       effect="fillet_chamfer"
       id="path-effect3312"
       is_visible="true"
       lpeversion="1"
       satellites_param="F,0,0,1,0,37,0,1 @ F,0,0,1,0,37,0,1 @ F,0,0,1,0,37,0,1 @ F,0,0,1,0,37,0,1"
       unit="px"
       method="auto"
       mode="F"
       radius="37"
       chamfer_steps="1"
       flexible="false"
       use_knot_distance="true"
       apply_no_radius="true"
       apply_with_radius="true"
       only_selected="false"
       hide_knots="false" />
    <marker
       style="overflow:visible"
       id="Arrow2Lstart"
       refX="0"
       refY="0"
       orient="auto"
       inkscape:stockid="Arrow2Lstart"
       inkscape:isstock="true">
      <path
         transform="matrix(1.1,0,0,1.1,1.1,0)"
         d="M 8.7185878,4.0337352 -2.2072895,0.01601326 8.7185884,-4.0017078 c -1.7454984,2.3720609 -1.7354408,5.6174519 -6e-7,8.035443 z"
         style="fill:context-stroke;fill-rule:evenodd;stroke:context-stroke;stroke-width:0.625;stroke-linejoin:round"
         id="path2926" />
    </marker>
    <linearGradient
       id="linearGradient2858"
       inkscape:swatch="solid">
      <stop
         style="stop-color:#000000;stop-opacity:1;"
         offset="0"
         id="stop2856" />
    </linearGradient>
  </defs>
  <g
     inkscape:label="Layer 1"
     inkscape:groupmode="layer"
     id="layer1"
     transform="translate(-223.25205,-284.75004)">
    <path
       style="opacity:0.84;fill:#000000;fill-opacity:1;stroke:#000000;stroke-width:6.028;stroke-linecap:square;stroke-linejoin:miter;stroke-miterlimit:4;stroke-dasharray:none"
       id="rect846"
       width="1467.4869"
       height="493.97211"
       x="226.25659"
       y="287.75452"
       inkscape:path-effect="#path-effect3312"
       d="M 263.25659,287.75452 H 1656.7435 a 37,37 45 0 1 37,37 v 419.9721 a 37,37 135 0 1 -37,37 H 263.25659 a 37,37 45 0 1 -37,-37 v -419.9721 a 37,37 135 0 1 37,-37 z"
       sodipodi:type="rect" />
    <path
       style="opacity:0.84;fill:#000000;fill-opacity:1;stroke:#000000;stroke-width:6.028;stroke-linecap:square;stroke-linejoin:miter;stroke-miterlimit:4;stroke-dasharray:none"
       id="rect846-3"
       width="1445.0748"
       height="475.2681"
       x="237.46284"
       y="296.1394"
       inkscape:path-effect="#path-effect3346"
       sodipodi:type="rect"
       d="M 274.46284,296.1394 H 1645.5377 a 37,37 45 0 1 37,37 l 0,401.2681 a 37,37 135 0 1 -37,37 H 274.46284 a 37,37 45 0 1 -37,-37 V 333.1394 a 37,37 135 0 1 37,-37 z" />
    <text
       xml:space="preserve"
       id="text6007"
       style="font-style:normal;font-weight:normal;font-size:40px;line-height:1.25;font-family:sans-serif;white-space:pre;shape-inside:url(#rect6009);fill:#000000;fill-opacity:1;stroke:none"
       transform="matrix(1.0000125,0,0,0.97918636,-0.01197445,5.9803084)" />
    <text
       xml:space="preserve"
       id="text47907"
       style="font-style:normal;font-weight:normal;font-size:40px;line-height:1.25;font-family:sans-serif;white-space:pre;shape-inside:url(#rect47909);fill:#000000;fill-opacity:1;stroke:none"
       transform="matrix(1.0000125,0,0,0.97918636,-0.01197445,5.9803084)" />
    <rect
       style="opacity:0.84;fill:#1a1a1a;fill-opacity:1;stroke:#000000;stroke-width:5.96502;stroke-linecap:square;stroke-miterlimit:4;stroke-dasharray:none"
       id="rect50826-6"
       width="199.47339"
       height="230.48882"
       x="455.73071"
       y="388.28668"
       rx="0"
       ry="33.211937" />
    <text
       xml:space="preserve"
       id="text7287"
       style="font-style:normal;font-weight:normal;font-size:40px;line-height:1.25;font-family:sans-serif;white-space:pre;shape-inside:url(#rect7289);fill:#000000;fill-opacity:1;stroke:none"
       transform="matrix(1.0000125,0,0,0.97918636,-0.01197445,5.9803084)" />
    <g
       aria-label="rcastellotti.dev"
       id="text7757"
       style="font-size:28px;line-height:1.25"
       transform="matrix(1.0000125,0,0,0.97918636,-0.01197445,5.9803084)">
      <path
         d="m 1390.6555,769.08633 v -2.74 h 2.74 v 2.74 z m 12.12,0 v -2.74 h 2.76 v 2.74 z m -12.12,-3.02 v -2.76 h 2.74 v 2.76 z m 9.08,0 v -2.76 h 2.76 v 2.76 z m -9.08,-3.02 v -2.76 h 2.74 v 2.76 z m 6.06,-0.02 v -2.76 h 2.74 v 2.76 z m -6.06,-3.02 v -2.76 h 2.74 v 2.76 z m 3.02,0 v -2.76 h 2.76 v 2.76 z m 3.04,0 v -2.76 h 2.74 v 2.76 z m 3.02,0 v -2.76 h 2.76 v 2.76 z m -9.08,-3.04 v -2.74 h 2.74 v 2.74 z m 12.12,0 v -2.76 h 2.76 v 2.76 z m -12.12,-3.02 v -2.76 h 2.74 v 2.76 z m 12.12,0 v -2.76 h 2.76 v 2.76 z m -12.12,-3.02 v -2.78 h 2.74 v 2.78 z m 3.02,-0.02 v -2.76 h 2.76 v 2.76 z m 3.04,0 v -2.76 h 2.74 v 2.76 z m 3.02,0 v -2.76 h 2.76 v 2.76 z"
         style="font-family:'Electronic Highway Sign';-inkscape-font-specification:'Electronic Highway Sign';fill:#ececec"
         id="path118492" />
      <path
         d="m 1410.8154,769.08633 v -2.74 h 2.76 v 2.74 z m 3.04,0 v -2.74 h 2.76 v 2.74 z m 3.02,0 v -2.74 h 2.76 v 2.74 z m -9.08,-3.02 v -2.76 h 2.76 v 2.76 z m 12.12,0 v -2.76 h 2.76 v 2.76 z m -12.12,-3.04 v -2.74 h 2.74 v 2.74 z m 0,-3.02 v -2.76 h 2.74 v 2.76 z m 0,-3.04 v -2.74 h 2.74 v 2.74 z m 0,-3.02 v -2.76 h 2.74 v 2.76 z m 12.12,0 v -2.76 h 2.76 v 2.76 z m -9.1,-3.04 v -2.76 h 2.76 v 2.76 z m 3.04,0 v -2.76 h 2.74 v 2.76 z m 3.02,0 v -2.76 h 2.76 v 2.76 z"
         style="font-family:'Electronic Highway Sign';-inkscape-font-specification:'Electronic Highway Sign';fill:#ececec"
         id="path118494" />
      <path
         d="m 1424.9354,769.08633 v -2.74 h 2.74 v 2.74 z m 12.12,0 v -2.74 h 2.76 v 2.74 z m -12.12,-3.02 v -2.76 h 2.74 v 2.76 z m 12.12,0 v -2.76 h 2.76 v 2.76 z m -12.12,-3.02 v -2.76 h 2.74 v 2.76 z m 3.02,0 v -2.76 h 2.76 v 2.76 z m 3.04,-0.02 v -2.74 h 2.74 v 2.74 z m 3.02,0 v -2.76 h 2.76 v 2.76 z m 3.04,0 v -2.76 h 2.76 v 2.76 z m -12.12,-3.02 v -2.76 h 2.74 v 2.76 z m 12.12,0 v -2.76 h 2.76 v 2.76 z m -12.12,-3.04 v -2.74 h 2.74 v 2.74 z m 12.12,0 v -2.76 h 2.76 v 2.76 z m -9.1,-3.02 v -2.76 h 2.74 v 2.76 z m 6.06,-0.04 v -2.76 h 2.76 v 2.76 z m -3.02,-3 v -2.76 h 2.74 v 2.76 z"
         style="font-family:'Electronic Highway Sign';-inkscape-font-specification:'Electronic Highway Sign';fill:#ececec"
         id="path118496" />
      <path
         d="m 1445.0954,769.08633 v -2.74 h 2.76 v 2.74 z m 3.04,0 v -2.74 h 2.74 v 2.74 z m 3.02,0 v -2.74 h 2.76 v 2.74 z m -9.08,-3.02 v -2.76 h 2.74 v 2.76 z m 12.12,0 v -2.76 h 2.76 v 2.76 z m 0,-3.04 v -2.76 h 2.76 v 2.76 z m -9.1,-3.02 v -2.76 h 2.76 v 2.76 z m 3.04,0 v -2.76 h 2.74 v 2.76 z m 3.02,0 v -2.76 h 2.76 v 2.76 z m -9.08,-3.04 v -2.74 h 2.74 v 2.74 z m 0,-3.02 v -2.76 h 2.74 v 2.76 z m 12.12,0 v -2.76 h 2.76 v 2.76 z m -9.1,-3.04 v -2.76 h 2.76 v 2.76 z m 3.04,0 v -2.76 h 2.74 v 2.76 z m 3.02,0 v -2.76 h 2.76 v 2.76 z"
         style="font-family:'Electronic Highway Sign';-inkscape-font-specification:'Electronic Highway Sign';fill:#ececec"
         id="path118498" />
      <path
         d="m 1465.2754,769.08633 v -2.74 h 2.76 v 2.74 z m 0,-3.02 v -2.76 h 2.76 v 2.76 z m 0,-3.04 v -2.76 h 2.76 v 2.76 z m 0,-3.02 v -2.76 h 2.74 v 2.76 z m 0,-3.04 v -2.74 h 2.74 v 2.74 z m 0,-3.02 v -2.76 h 2.74 v 2.76 z m -6.06,-3.04 v -2.76 h 2.74 v 2.76 z m 3.02,0 v -2.76 h 2.76 v 2.76 z m 3.04,0 v -2.76 h 2.74 v 2.76 z m 3.02,0 v -2.76 h 2.76 v 2.76 z m 3.04,0 v -2.76 h 2.76 v 2.76 z"
         style="font-family:'Electronic Highway Sign';-inkscape-font-specification:'Electronic Highway Sign';fill:#ececec"
         id="path118500" />
      <path
         d="m 1476.3554,769.08633 v -2.74 h 2.74 v 2.74 z m 3.02,0 v -2.74 h 2.76 v 2.74 z m 3.04,0 v -2.74 h 2.74 v 2.74 z m 3.02,0 v -2.74 h 2.76 v 2.74 z m 3.04,0 v -2.74 h 2.76 v 2.74 z m -12.12,-3.02 v -2.76 h 2.74 v 2.76 z m 0,-3.02 v -2.76 h 2.74 v 2.76 z m 0,-3.04 v -2.76 h 2.74 v 2.76 z m 3.02,0 v -2.76 h 2.76 v 2.76 z m 3.04,0 v -2.76 h 2.74 v 2.76 z m 3.02,0 v -2.76 h 2.76 v 2.76 z m -9.08,-3.04 v -2.74 h 2.74 v 2.74 z m 0,-3.02 v -2.76 h 2.74 v 2.76 z m 0,-3.02 v -2.78 h 2.74 v 2.78 z m 3.02,-0.02 v -2.76 h 2.76 v 2.76 z m 3.04,0 v -2.76 h 2.74 v 2.76 z m 3.02,0 v -2.76 h 2.76 v 2.76 z m 3.04,0 v -2.76 h 2.76 v 2.76 z"
         style="font-family:'Electronic Highway Sign';-inkscape-font-specification:'Electronic Highway Sign';fill:#ececec"
         id="path118502" />
      <path
         d="m 1493.4954,769.08633 v -2.74 h 2.76 v 2.74 z m 3.02,0 v -2.74 h 2.76 v 2.74 z m 3.04,0 v -2.74 h 2.76 v 2.74 z m 3.02,0 v -2.74 h 2.76 v 2.74 z m 3.04,0 v -2.74 h 2.76 v 2.74 z m -12.12,-3.02 v -2.76 h 2.76 v 2.76 z m 0,-3.04 v -2.76 h 2.76 v 2.76 z m 0,-3.02 v -2.76 h 2.76 v 2.76 z m 0,-3.04 v -2.74 h 2.76 v 2.74 z m 0,-3.02 v -2.76 h 2.74 v 2.76 z m 0,-3.04 v -2.76 h 2.74 v 2.76 z"
         style="font-family:'Electronic Highway Sign';-inkscape-font-specification:'Electronic Highway Sign';fill:#ececec"
         id="path118504" />
      <path
         d="m 1510.6354,769.08633 v -2.74 h 2.76 v 2.74 z m 3.02,0 v -2.74 h 2.76 v 2.74 z m 3.04,0 v -2.74 h 2.76 v 2.74 z m 3.02,0 v -2.74 h 2.76 v 2.74 z m 3.04,0 v -2.74 h 2.76 v 2.74 z m -12.12,-3.02 v -2.76 h 2.76 v 2.76 z m 0,-3.04 v -2.76 h 2.76 v 2.76 z m 0,-3.02 v -2.76 h 2.76 v 2.76 z m 0,-3.04 v -2.74 h 2.76 v 2.74 z m 0,-3.02 v -2.76 h 2.74 v 2.76 z m 0,-3.04 v -2.76 h 2.74 v 2.76 z"
         style="font-family:'Electronic Highway Sign';-inkscape-font-specification:'Electronic Highway Sign';fill:#ececec"
         id="path118506" />
      <path
         d="m 1530.7954,769.08633 v -2.74 h 2.76 v 2.74 z m 3.04,0 v -2.74 h 2.74 v 2.74 z m 3.02,0 v -2.74 h 2.76 v 2.74 z m -9.08,-3.02 v -2.76 h 2.74 v 2.76 z m 12.12,0 v -2.76 h 2.76 v 2.76 z m -12.12,-3.02 v -2.76 h 2.74 v 2.76 z m 12.12,-0.02 v -2.76 h 2.76 v 2.76 z m -12.12,-3.02 v -2.76 h 2.74 v 2.76 z m 12.12,0 v -2.76 h 2.76 v 2.76 z m -12.12,-3.04 v -2.74 h 2.74 v 2.74 z m 12.12,0 v -2.76 h 2.76 v 2.76 z m -12.12,-3.02 v -2.76 h 2.74 v 2.76 z m 12.12,0 v -2.76 h 2.76 v 2.76 z m -9.1,-3.04 v -2.76 h 2.76 v 2.76 z m 3.04,0 v -2.76 h 2.74 v 2.76 z m 3.02,0 v -2.76 h 2.76 v 2.76 z"
         style="font-family:'Electronic Highway Sign';-inkscape-font-specification:'Electronic Highway Sign';fill:#ececec"
         id="path118508" />
      <path
         d="m 1550.9754,769.08633 v -2.74 h 2.76 v 2.74 z m 0,-3.02 v -2.76 h 2.76 v 2.76 z m 0,-3.04 v -2.76 h 2.76 v 2.76 z m 0,-3.02 v -2.76 h 2.74 v 2.76 z m 0,-3.04 v -2.74 h 2.74 v 2.74 z m 0,-3.02 v -2.76 h 2.74 v 2.76 z m -6.06,-3.04 v -2.76 h 2.74 v 2.76 z m 3.02,0 v -2.76 h 2.76 v 2.76 z m 3.04,0 v -2.76 h 2.74 v 2.76 z m 3.02,0 v -2.76 h 2.76 v 2.76 z m 3.04,0 v -2.76 h 2.76 v 2.76 z"
         style="font-family:'Electronic Highway Sign';-inkscape-font-specification:'Electronic Highway Sign';fill:#ececec"
         id="path118510" />
      <path
         d="m 1568.1154,769.08633 v -2.74 h 2.76 v 2.74 z m 0,-3.02 v -2.76 h 2.76 v 2.76 z m 0,-3.04 v -2.76 h 2.76 v 2.76 z m 0,-3.02 v -2.76 h 2.74 v 2.76 z m 0,-3.04 v -2.74 h 2.74 v 2.74 z m 0,-3.02 v -2.76 h 2.74 v 2.76 z m -6.06,-3.04 v -2.76 h 2.74 v 2.76 z m 3.02,0 v -2.76 h 2.76 v 2.76 z m 3.04,0 v -2.76 h 2.74 v 2.76 z m 3.02,0 v -2.76 h 2.76 v 2.76 z m 3.04,0 v -2.76 h 2.76 v 2.76 z"
         style="font-family:'Electronic Highway Sign';-inkscape-font-specification:'Electronic Highway Sign';fill:#ececec"
         id="path118512" />
      <path
         d="m 1582.2354,769.08633 v -2.74 h 2.74 v 2.74 z m 3.02,0 v -2.74 h 2.76 v 2.74 z m 3.04,0 v -2.74 h 2.74 v 2.74 z m -3.04,-3.02 v -2.76 h 2.76 v 2.76 z m 0,-3.04 v -2.76 h 2.76 v 2.76 z m 0,-3.02 v -2.76 h 2.74 v 2.76 z m 0,-3.04 v -2.74 h 2.74 v 2.74 z m 0,-3.02 v -2.76 h 2.74 v 2.76 z m -3.02,-3.04 v -2.76 h 2.74 v 2.76 z m 3.02,0 v -2.76 h 2.74 v 2.76 z m 3.02,0 v -2.76 h 2.76 v 2.76 z"
         style="font-family:'Electronic Highway Sign';-inkscape-font-specification:'Electronic Highway Sign';fill:#ececec"
         id="path118514" />
      <path
         d="m 1599.3754,769.08633 v -2.74 h 2.74 v 2.74 z m 3.02,0 v -2.74 h 2.76 v 2.74 z m -3.02,-3.02 v -2.76 h 2.74 v 2.76 z m 3.02,0 v -2.76 h 2.76 v 2.76 z"
         style="font-family:'Electronic Highway Sign';-inkscape-font-specification:'Electronic Highway Sign';fill:#ececec"
         id="path118516" />
      <path
         d="m 1613.4753,769.08633 v -2.74 h 2.74 v 2.74 z m 3.02,0 v -2.74 h 2.76 v 2.74 z m 3.04,0 v -2.74 h 2.74 v 2.74 z m -6.06,-3.02 v -2.76 h 2.74 v 2.76 z m 9.08,0 v -2.76 h 2.76 v 2.76 z m -9.08,-3.02 v -2.76 h 2.74 v 2.76 z m 12.12,-0.02 v -2.76 h 2.76 v 2.76 z m -12.12,-3.02 v -2.76 h 2.74 v 2.76 z m 12.12,0 v -2.76 h 2.76 v 2.76 z m -12.12,-3.04 v -2.74 h 2.74 v 2.74 z m 12.12,0 v -2.76 h 2.76 v 2.76 z m -12.12,-3.02 v -2.76 h 2.74 v 2.76 z m 9.08,0 v -2.76 h 2.76 v 2.76 z m -9.08,-3.02 v -2.78 h 2.74 v 2.78 z m 3.02,-0.02 v -2.76 h 2.76 v 2.76 z m 3.04,0 v -2.76 h 2.74 v 2.76 z"
         style="font-family:'Electronic Highway Sign';-inkscape-font-specification:'Electronic Highway Sign';fill:#ececec"
         id="path118518" />
      <path
         d="m 1630.6153,769.08633 v -2.74 h 2.74 v 2.74 z m 3.02,0 v -2.74 h 2.76 v 2.74 z m 3.04,0 v -2.74 h 2.74 v 2.74 z m 3.02,0 v -2.74 h 2.76 v 2.74 z m 3.04,0 v -2.74 h 2.76 v 2.74 z m -12.12,-3.02 v -2.76 h 2.74 v 2.76 z m 0,-3.02 v -2.76 h 2.74 v 2.76 z m 0,-3.04 v -2.76 h 2.74 v 2.76 z m 3.02,0 v -2.76 h 2.76 v 2.76 z m 3.04,0 v -2.76 h 2.74 v 2.76 z m 3.02,0 v -2.76 h 2.76 v 2.76 z m -9.08,-3.04 v -2.74 h 2.74 v 2.74 z m 0,-3.02 v -2.76 h 2.74 v 2.76 z m 0,-3.02 v -2.78 h 2.74 v 2.78 z m 3.02,-0.02 v -2.76 h 2.76 v 2.76 z m 3.04,0 v -2.76 h 2.74 v 2.76 z m 3.02,0 v -2.76 h 2.76 v 2.76 z m 3.04,0 v -2.76 h 2.76 v 2.76 z"
         style="font-family:'Electronic Highway Sign';-inkscape-font-specification:'Electronic Highway Sign';fill:#ececec"
         id="path118520" />
      <path
         d="m 1653.8153,769.08633 v -2.74 h 2.74 v 2.74 z m -6.06,-12.12 v -2.74 h 2.74 v 2.74 z m 12.12,0 v -2.76 h 2.76 v 2.76 z m -12.12,-3.02 v -2.76 h 2.74 v 2.76 z m 12.12,0 v -2.76 h 2.76 v 2.76 z m -12.12,-3.04 v -2.76 h 2.74 v 2.76 z m 12.12,0 v -2.76 h 2.76 v 2.76 z m -9.1,12.14 v -2.76 h 2.76 v 2.76 z m 6.06,-0.02 v -2.76 h 2.76 v 2.76 z m -6.06,-3.02 v -2.76 h 2.76 v 2.76 z m 6.06,0 v -2.76 h 2.76 v 2.76 z m -3.02,6.06 v -2.76 h 2.76 v 2.76 z"
         style="font-family:'Electronic Highway Sign';-inkscape-font-specification:'Electronic Highway Sign';fill:#ececec"
         id="path118522" />
    </g>
    <text
       xml:space="preserve"
       id="text62399"
       style="font-style:normal;font-weight:normal;font-size:40px;line-height:1.25;font-family:sans-serif;white-space:pre;shape-inside:url(#rect62401);fill:#000000;fill-opacity:1;stroke:none"
       transform="matrix(1.0000125,0,0,0.97918636,-0.01197445,5.9803084)" />
    <rect
       style="opacity:0.84;fill:#1a1a1a;fill-opacity:1;stroke:#000000;stroke-width:5.96502;stroke-linecap:square;stroke-miterlimit:4;stroke-dasharray:none"
       id="rect50826"
       width="199.47339"
       height="230.48882"
       x="256.25732"
       y="388.28668"
       rx="0"
       ry="33.211937" />
  </g>
</svg>
